PathFileType	4	(X/Y/Z)	A12_1_OpenSim.trc																																																																																																																						
DataRate	CameraRate	NumFrames	NumMarkers	Units	OrigDataRate	OrigDataStartFrame	OrigNumFrames																																																																																																																		
100	100	5	40	mm	100	1126	3000																																																																																																																		
Frame#	Time	R.ASIS			R.PSIS			S2			L.PSIS			L.ASIS			R.TH1			R.TH2			R.TH3			R.MKnee			R.Knee			R.SH1			R.SH2			R.SH3			R.SH4			R.Ankle			R.MAnkle			R.Heel			R.MT5			R.MT1			L.TH1			L.TH2			L.TH3			L.TH4			L.MKnee			L.Knee			L.SH1			L.SH2			L.SH3			L.Ankle			L.MAnkle			L.Heel			L.MT5			L.MT1			R.Acr			L.Acr			C7			T10			Clav			Sternum			R.Back		
		X1	Y1	Z1	X2	Y2	Z2	X3	Y3	Z3	X4	Y4	Z4	X5	Y5	Z5	X6	Y6	Z6	X7	Y7	Z7	X8	Y8	Z8	X9	Y9	Z9	X10	Y10	Z10	X11	Y11	Z11	X12	Y12	Z12	X13	Y13	Z13	X14	Y14	Z14	X15	Y15	Z15	X16	Y16	Z16	X17	Y17	Z17	X18	Y18	Z18	X19	Y19	Z19	X20	Y20	Z20	X21	Y21	Z21	X22	Y22	Z22	X23	Y23	Z23	X24	Y24	Z24	X25	Y25	Z25	X26	Y26	Z26	X27	Y27	Z27	X28	Y28	Z28	X29	Y29	Z29	X30	Y30	Z30	X31	Y31	Z31	X32	Y32	Z32	X33	Y33	Z33	X34	Y34	Z34	X35	Y35	Z35	X36	Y36	Z36	X37	Y37	Z37	X38	Y38	Z38	X39	Y39	Z39	X40	Y40	Z40
1126	11.25	992.2281	1047.21	-405.711	803.066	1037.8959	-491.5683	795.5989	1033.254	-536.7297	800.4636	1040.5398	-586.8838	974.343	1043.635	-696.1164	1061.2852	735.2615	-383.7181	985.9128	702.3143	-378.1623	1028.4501	602.2604	-393.7245	1095.3568	503.3786	-517.7632	1097.6215	506.6753	-402.1486	1148.6973	348.8802	-400.2029	1177.7523	241.958	-418.8788	1068.9884	326.9859	-391.6173	1102.897	218.831	-401.3947	1162.4443	71.3647	-411.266	1195.9724	98.3242	-503.5435	1109.0265	31.3969	-472.7515	1282.5164	45.6643	-387.3597	1329.0116	58.5634	-475.2516	964.5965	735.5446	-710.5257	952.9329	627.4499	-701.6621	882.5729	739.6228	-726.0731	873.3383	631.5725	-708.7275	908.922	475.3393	-587.6485	899.3043	485.5623	-699.1388	828.7978	366.3492	-715.9837	762.9576	415.7493	-716.3504	699.8193	326.0686	-711.5873	624.1169	125.8038	-713.1482	656.6436	127.1224	-615.1164	550.0789	118.8854	-657.7444	699.5765	37.2835	-729.0109	737.8728	45.6298	-624.2562	894.0304	1433.5446	-385.3018	877.5965	1422.838	-712.1022	826.4951	1468.0129	-552.8575	819.0287	1140.8296	-542.6282	970.7208	1383.4033	-554.0301	1010.6702	1242.8464	-544.076	757.6005	1363.5388	-465.7298
1127	11.26	993.2439	1047.885	-403.6562	803.6593	1037.6215	-489.2227	796.0925	1032.616	-534.3657	800.6181	1039.5358	-584.5593	974.3215	1042.7336	-693.9861	1063.4077	736.1527	-381.3674	988.0399	703.115	-375.8172	1030.5729	603.1309	-391.6895	1096.714	504.3054	-516.4955	1099.9465	507.4319	-400.8038	1148.038	348.2643	-399.7045	1174.2075	240.6806	-418.9323	1067.9569	328.2808	-389.5392	1099.2749	219.3147	-400.0665	1153.0024	71.2974	-411.2536	1186.978	96.8501	-503.6119	1097.7042	32.4591	-472.3831	1272.4186	42.3659	-388.0051	1319.4724	52.3239	-476.3617	968.8927	734.8158	-709.2352	959.3849	626.2507	-701.1387	886.6583	737.4204	-723.9512	879.6853	629.0427	-707.7745	920.2416	472.4581	-588.6208	908.6487	484.0502	-699.9922	834.287	367.3949	-717.3811	770.2282	419.276	-715.9518	703.9599	331.8932	-711.2946	621.4981	133.7531	-714.5991	654.236	133.8973	-617.0787	547.6015	132.5658	-659.0063	690.4667	40.0338	-729.7184	728.6392	47.0392	-624.6497	894.8287	1433.5864	-383.4643	877.0671	1422.0327	-709.9889	826.6291	1467.5908	-550.8129	819.3907	1140.3276	-540.481	970.9153	1383.0601	-552.3061	1011.0411	1242.6318	-542.2043	758.2827	1363.1751	-463.1094
1128	11.27	994.0936	1048.91	-401.7914	804.1104	1037.6229	-486.9817	796.4872	1032.2223	-532.1185	800.5624	1038.7624	-582.3318	974.0901	1042.0088	-691.9376	1065.2452	737.2184	-379.0339	989.8762	704.1621	-373.3074	1032.2958	604.2059	-389.5055	1097.6213	505.3283	-515.16	1101.6545	508.2729	-399.4112	1146.5942	347.7687	-399.0863	1169.8608	239.5978	-418.871	1066.1985	329.7062	-387.3112	1094.9005	219.9907	-398.5901	1142.9086	71.4195	-411.1363	1177.333	95.8248	-503.4901	1086.2129	33.3019	-471.9785	1261.672	40.0765	-388.1426	1309.283	47.5414	-476.8094	973.5292	734.3616	-708.0729	966.3372	625.3989	-700.779	891.1132	735.3515	-722.0637	886.5631	626.6864	-707.0574	932.3281	469.9911	-589.6403	918.8125	482.8381	-700.8966	841.095	368.7259	-718.7395	778.8879	422.9749	-715.8297	709.5989	337.9782	-711.1858	620.4378	142.8261	-716.0076	653.1373	141.5031	-618.9363	546.8943	147.5548	-660.3602	682.3068	44.1583	-730.3498	720.3466	49.3279	-625.0889	895.5508	1433.8825	-381.6636	876.361	1421.5225	-707.9383	826.6574	1467.4114	-548.7986	819.5796	1140.1043	-538.4384	970.9862	1382.9447	-550.6463	1011.267	1242.6322	-540.3968	758.8748	1363.052	-460.5094
1129	11.28	994.7407	1050.2336	-400.1029	804.4091	1037.8649	-484.851	796.7914	1032.0536	-529.9999	800.2879	1038.2188	-580.2073	973.6321	1041.469	-689.9885	1066.6732	738.3367	-376.8257	991.2787	705.3676	-370.8106	1033.4453	605.3813	-387.374	1097.9033	506.3895	-513.9048	1102.5789	509.1053	-398.121	1144.2698	347.3356	-398.5001	1164.6826	238.6598	-418.8244	1063.6272	331.1638	-385.182	1089.7247	220.7829	-397.1741	1132.2483	71.6851	-411.006	1167.0804	95.1638	-503.3278	1074.5813	33.9271	-471.602	1250.4232	38.6462	-387.9801	1298.5275	44.1125	-476.8348	978.4022	734.22	-706.9417	973.6599	624.9651	-700.4514	895.8608	733.4797	-720.3754	893.8461	624.5877	-706.4872	944.7895	468.1093	-590.5033	929.6262	482.0037	-701.7168	849.0782	370.3389	-719.8785	788.7537	426.8186	-715.9777	716.5829	344.2653	-711.2616	620.8994	153.0195	-717.2324	653.2775	149.9566	-620.5185	547.8932	163.5917	-661.6706	675.3414	49.8555	-730.8523	713.2323	52.6599	-625.5652	896.2032	1434.405	-379.9442	875.4991	1421.3129	-705.9823	826.5855	1467.4793	-546.8429	819.5892	1140.1567	-536.4941	970.9354	1383.0402	-549.0768	1011.3176	1242.8147	-538.7001	759.3593	1363.1775	-457.9743
1130	11.29	995.1719	1051.7876	-398.5641	804.551	1038.3175	-482.8284	797.0133	1032.0981	-528.0092	799.8046	1037.906	-578.1836	972.9438	1041.1371	-688.151	1067.5731	739.3885	-374.8478	992.114	706.6382	-368.4986	1033.8647	606.5501	-385.4745	1097.3468	507.4086	-512.8729	1102.5966	509.8431	-397.0568	1141.0095	346.9127	-398.0608	1158.6897	237.8166	-418.8712	1060.1908	332.5622	-383.3737	1083.7345	221.6178	-395.9898	1121.1277	72.0494	-410.926	1156.3032	94.7755	-503.2332	1062.8324	34.3677	-471.2924	1238.8142	37.8712	-387.6874	1287.3146	41.8265	-476.6423	983.4179	734.445	-705.7524	981.2288	625.0221	-700.0279	900.8215	731.8824	-718.8228	901.4161	622.8392	-705.956	957.2554	466.9578	-591.0189	940.9236	481.6326	-702.3361	858.04	372.2521	-720.6423	799.5819	430.8115	-716.3517	724.6975	350.7173	-711.4906	622.7795	164.2091	-718.1316	654.5844	159.1923	-621.671	550.4592	180.2754	-662.7541	669.8311	57.1548	-731.1798	707.5568	57.1109	-626.0616	896.7927	1435.1242	-378.3482	874.5065	1421.399	-704.1476	826.4225	1467.7991	-544.9699	819.4237	1140.4761	-534.633	970.7677	1383.334	-547.6219	1011.1791	1243.1575	-537.157	759.7216	1363.5607	-455.5429
